_________________________  Visit us at _________________________
  
http://p2pdl.com  ____________________________  http://p2pdl.com



 
http://www.shotpix.com/images/21865404929437839404.jpg


Girls Generation - I Got A Boy {M4A+MP4} (1080p) x264 [VX] [P2PDL]


                          1080p Full HD MP4 Video
                                    +
                           128 Kbps/VBR M4A Audio

General
Complete name                  : Girls' Generation - I Got A Boy (1080p) x264 [VX] [P2PDL].mp4
Format                         : MPEG-4
Format profile                 : Base Media / Version 2
Codec ID                       : mp42
File size                      : 70.0 MiB

Video
ID                             : 1
Format                         : AVC
Format/Info                    : Advanced Video Codec
Width                          : 1 920 pixels
Height                         : 1 080 pixels
Display aspect ratio           : 16:9
Frame rate mode                : Variable
Frame rate                     : 23.976 fps
Color space                    : YUV
Scan type                      : Progressive
Bits/(Pixel*Frame)             : 0.036
Stream size                    : 65.2 MiB (93%)
Writing library                : x264 core 128

Audio
ID                             : 2
Format                         : AAC
Format/Info                    : Advanced Audio Codec
Duration                       : 5mn 4s
Bit rate mode                  : Variable
Bit rate                       : 128 Kbps
Channel(s)                     : 2 channels
Channel positions              : Front: L R
Sampling rate                  : 48.0 KHz
Stream size                    : 4.62 MiB (7%)

Subtitles                      : No

Screens:
 
http://www.shotpix.com/images/21310372912381545178.jpg 
http://www.shotpix.com/images/61683247581165341681.jpg

Thumbs:
 
http://www.shotpix.com/images/09946755835208213155.jpg

------------------------------------------------------------------------

Notes:

* Recommended to use latest version VLC Media Player.
* Install shark007 codecs in case of any kind of problem in playback (For non-VLC Media Player users).
* Alternatively, install Core AVC codecs, the fastest decoder that there is coupled with Community Center Codec Pack and play on Windows Media Player Classic.

Greets to: VYTO, a2zRG, Stumpie1971, Sheychi, Caveman, Ash968, Neon, Masta, TorDigger and staff members at ExtraTorrent, TPB,KAT, 1337x, PublicHD, Ahashare, TorrentMafia, Limetorrents, BTScene, P2PDL, and all others

Encoder Notes: Looking For Early Access To Anything You Can Provide DVDScr, R5, DVDRips, BluRay, Direct Audio, Early Music
Releases, Seedboxes, Links, Dedicated Servers anything u can provide, Advance / Promo CDs/DVDs. If You Got anything to
offer contact me at "prg@hush.com"

Facebook Fan Page: www . facebook . com / p2pdl